<svg xmlns="http://www.w3.org/2000/svg" xmlns:xlink="http://www.w3.org/1999/xlink"><defs><symbol viewBox="0 0 492.004 492.004" id="arrow"><path d="M382.678 226.804L163.73 7.86C158.666 2.792 151.906 0 144.698 0s-13.968 2.792-19.032 7.86l-16.124 16.12c-10.492 10.504-10.492 27.576 0 38.064L293.398 245.9l-184.06 184.06c-5.064 5.068-7.86 11.824-7.86 19.028 0 7.212 2.796 13.968 7.86 19.04l16.124 16.116c5.068 5.068 11.824 7.86 19.032 7.86s13.968-2.792 19.032-7.86L382.678 265c5.076-5.084 7.864-11.872 7.848-19.088.016-7.244-2.772-14.028-7.848-19.108z"/></symbol><symbol viewBox="0 0 18 18" fill="none" id="arrow-down"><path d="M13.2 7.8L9 11.4 4.8 7.8" stroke="currentColor" stroke-width="1.5" stroke-linecap="round" stroke-linejoin="round"/></symbol><symbol viewBox="0 0 20 20" id="arrow-right"><path d="M10.977 10L6.852 5.875 8.03 4.697 13.333 10 8.03 15.303l-1.178-1.178L10.977 10z"/></symbol><symbol viewBox="0 0 16 16" fill="none" id="cross"><path d="M4 4l8 8m-8 0l8-7.764" stroke="currentColor" stroke-linecap="square"/></symbol><symbol viewBox="0 0 16 16" fill="none" id="done"><path d="M13.33 4l-7.333 7.333L2.664 8" stroke="currentColor" stroke-linecap="square" stroke-linejoin="round"/></symbol><symbol viewBox="0 0 20 20" fill="none" id="eye"><path d="M.834 10.003s3.333-6.667 9.167-6.667c5.833 0 9.166 6.667 9.166 6.667s-3.333 6.666-9.166 6.666c-5.834 0-9.167-6.666-9.167-6.666z" stroke="currentColor" stroke-width="1.333" stroke-linecap="round" stroke-linejoin="round"/><path d="M10 12.5a2.5 2.5 0 100-5 2.5 2.5 0 000 5z" stroke="currentColor" stroke-width="1.333" stroke-linecap="round" stroke-linejoin="round"/></symbol><symbol viewBox="0 0 20 20" fill="none" id="eye-closed"><path d="M8.25 3.536a7.6 7.6 0 011.75-.2c5.834 0 9.167 6.667 9.167 6.667a15.413 15.413 0 01-1.8 2.658m-5.6-.892a2.502 2.502 0 01-3.596.064 2.5 2.5 0 01.063-3.597m6.717 6.717A8.392 8.392 0 0110 16.669c-5.834 0-9.167-6.666-9.167-6.666a15.375 15.375 0 014.217-4.95l9.9 9.9zM.834.836l18.333 18.333" stroke="currentColor" stroke-width="1.333" stroke-linecap="round" stroke-linejoin="round"/></symbol><symbol viewBox="0 0 20 20" id="loading"><path d="M10 1.667a.833.833 0 01.833.833V5a.833.833 0 11-1.667 0V2.5a.833.833 0 01.833-.833zm0 12.5a.833.833 0 01.833.833v2.5a.833.833 0 01-1.667 0V15a.833.833 0 01.833-.833zM18.332 10a.833.833 0 01-.834.833H15a.833.833 0 110-1.666h2.5a.833.833 0 01.834.833zm-12.5 0a.833.833 0 01-.834.833H2.5a.833.833 0 110-1.666H5a.833.833 0 01.834.833zm10.059 5.893a.833.833 0 01-1.178 0l-1.768-1.768a.833.833 0 011.178-1.178l1.768 1.766a.834.834 0 010 1.18zm-8.84-8.84a.833.833 0 01-1.178 0L4.108 5.287a.834.834 0 011.178-1.18l1.767 1.768a.833.833 0 010 1.178zm-2.944 8.84a.833.833 0 010-1.179l1.767-1.767a.832.832 0 011.433.586.834.834 0 01-.254.592l-1.767 1.768a.834.834 0 01-1.18 0zm8.838-8.84a.833.833 0 010-1.178l1.767-1.767a.833.833 0 111.179 1.178l-1.768 1.767a.833.833 0 01-1.178 0z"/></symbol><symbol viewBox="0 0 54 54" id="plus"><path d="M24.75 24.75v-9h4.5v9h9v4.5h-9v9h-4.5v-9h-9v-4.5h9zM27 49.5C14.573 49.5 4.5 39.427 4.5 27S14.573 4.5 27 4.5 49.5 14.573 49.5 27 39.427 49.5 27 49.5zm0-4.5a18 18 0 100-36 18 18 0 000 36z"/></symbol><symbol viewBox="0 0 16 16" id="search"><path d="M7.334 1.333c3.312 0 6 2.688 6 6s-2.688 6-6 6-6-2.688-6-6 2.688-6 6-6zm0 10.667a4.666 4.666 0 004.667-4.667 4.665 4.665 0 00-4.667-4.666 4.665 4.665 0 00-4.667 4.666A4.665 4.665 0 007.334 12zm5.657.047l1.886 1.886-.944.943-1.885-1.886.943-.943z"/></symbol><symbol viewBox="0 0 128 128" id="spinner"><path d="M64 9.75A54.25 54.25 0 009.75 64H0a64 64 0 01128 0h-9.75A54.25 54.25 0 0064 9.75z"/></symbol><style>.sprite-symbol-usage{display:none}.sprite-symbol-usage:target{display:inline}</style></defs><use id="arrow-usage" xlink:href="#arrow" class="sprite-symbol-usage"/><use id="arrow-down-usage" xlink:href="#arrow-down" class="sprite-symbol-usage"/><use id="arrow-right-usage" xlink:href="#arrow-right" class="sprite-symbol-usage"/><use id="cross-usage" xlink:href="#cross" class="sprite-symbol-usage"/><use id="done-usage" xlink:href="#done" class="sprite-symbol-usage"/><use id="eye-usage" xlink:href="#eye" class="sprite-symbol-usage"/><use id="eye-closed-usage" xlink:href="#eye-closed" class="sprite-symbol-usage"/><use id="loading-usage" xlink:href="#loading" class="sprite-symbol-usage"/><use id="plus-usage" xlink:href="#plus" class="sprite-symbol-usage"/><use id="search-usage" xlink:href="#search" class="sprite-symbol-usage"/><use id="spinner-usage" xlink:href="#spinner" class="sprite-symbol-usage"/></svg>