<svg xmlns="http://www.w3.org/2000/svg" xmlns:xlink="http://www.w3.org/1999/xlink"><defs><symbol viewBox="0 0 492.004 492.004" id="arrow"><path d="M382.678 226.804L163.73 7.86C158.666 2.792 151.906 0 144.698 0s-13.968 2.792-19.032 7.86l-16.124 16.12c-10.492 10.504-10.492 27.576 0 38.064L293.398 245.9l-184.06 184.06c-5.064 5.068-7.86 11.824-7.86 19.028 0 7.212 2.796 13.968 7.86 19.04l16.124 16.116c5.068 5.068 11.824 7.86 19.032 7.86s13.968-2.792 19.032-7.86L382.678 265c5.076-5.084 7.864-11.872 7.848-19.088.016-7.244-2.772-14.028-7.848-19.108z"/></symbol><symbol viewBox="0 0 25 17" fill="none" id="arrow-back"><path d="M.434 7.434a.8.8 0 000 1.132l5.091 5.09a.8.8 0 001.132-1.13L2.13 8l4.526-4.525a.8.8 0 10-1.132-1.132L.435 7.434zM25 7.2H1v1.6h24V7.2z" fill="#000"/></symbol><symbol viewBox="0 0 18 18" fill="none" id="arrow-down"><path d="M13.2 7.8L9 11.4 4.8 7.8" stroke="currentColor" stroke-width="1.5" stroke-linecap="round" stroke-linejoin="round"/></symbol><symbol viewBox="0 0 15 17" fill="none" id="arrow-down-2"><path d="M2 10.425L7.5 15l5.5-4.575m-5.5 3.919V1" stroke="#008891" stroke-width="1.6" stroke-miterlimit="10" stroke-linecap="square"/></symbol><symbol viewBox="0 0 11 18" fill="none" id="arrow-left-middle"><path d="M10 1L2 9l8 8" stroke="#008891" stroke-width="2"/></symbol><symbol viewBox="0 0 12 41" fill="none" id="arrow-long"><path transform="rotate(-90 5.5 34)" fill="#E3E3E3" d="M5.5 34h34v1h-34z"/><path d="M1.5 35L6 39l4.5-4" stroke="#FF4715" stroke-width="1.5"/></symbol><symbol viewBox="0 0 20 20" id="arrow-right"><path d="M10.977 10L6.852 5.875 8.03 4.697 13.333 10 8.03 15.303l-1.178-1.178L10.977 10z"/></symbol><symbol viewBox="0 0 11 18" fill="none" id="arrow-right-middle"><path d="M1 1l8 8-8 8" stroke="#008891" stroke-width="2"/></symbol><symbol viewBox="0 0 5 8" fill="none" id="arrow-right-small"><path d="M1 1l3 3-3 3" stroke="#878787"/></symbol><symbol viewBox="0 0 38 38" fill="none" id="base-icon-1"><path d="M20.767 1H1v36h27.598m1.025-27.143v10.4" stroke="#008891" stroke-width="2" stroke-miterlimit="10" stroke-linecap="round" stroke-linejoin="round"/><path d="M20.768 1v8.857h8.855L20.768 1z" stroke="#008891" stroke-width="2" stroke-miterlimit="10" stroke-linecap="round" stroke-linejoin="round"/><path d="M28.598 37a8.403 8.403 0 100-16.805 8.403 8.403 0 000 16.805z" stroke="#FF4715" stroke-width="2" stroke-miterlimit="10" stroke-linecap="round" stroke-linejoin="round"/><path d="M24.799 28.607l2.542 2.543 4.567-4.567" stroke="#FF4715" stroke-width="2" stroke-miterlimit="10" stroke-linecap="round" stroke-linejoin="round"/><path d="M5.48 24.303h6.32m-6.32-5.228h11.585M5.48 13.846h11.585" stroke="#008891" stroke-width="2" stroke-miterlimit="10" stroke-linecap="round" stroke-linejoin="round"/></symbol><symbol viewBox="0 0 34 38" fill="none" id="base-icon-2"><path d="M16.6 21.4a2.4 2.4 0 100-4.8 2.4 2.4 0 000 4.8z" stroke="#FF4715" stroke-width="2" stroke-miterlimit="10" stroke-linecap="round" stroke-linejoin="round"/><path d="M18.922 12.183a7.192 7.192 0 012.418 1.399l2.674-.94 1.8 3.117-2.15 1.843a7.247 7.247 0 010 2.795l2.15 1.844-1.8 3.118-2.674-.941a7.195 7.195 0 01-2.418 1.399L18.4 28.6h-3.6l-.522-2.783a7.193 7.193 0 01-2.417-1.399l-2.674.94-1.8-3.117 2.149-1.844a7.246 7.246 0 010-2.794l-2.15-1.844 1.8-3.118 2.675.941a7.193 7.193 0 012.417-1.399L14.8 9.4h3.6l.522 2.783z" stroke="#FF4715" stroke-width="2" stroke-miterlimit="10" stroke-linecap="round" stroke-linejoin="round"/><path d="M1 7v10.39A20.125 20.125 0 0016.6 37a20.125 20.125 0 0015.6-19.61V7c-9.6 0-15.6-6-15.6-6S10.6 7 1 7z" stroke="#008891" stroke-width="2" stroke-miterlimit="10" stroke-linecap="round" stroke-linejoin="round"/></symbol><symbol viewBox="0 0 37 38" fill="none" id="base-icon-3"><path d="M27.541 10.152a9.153 9.153 0 00-18.305 0c0 2.068.711 3.955 1.868 5.487l7.285 9.768 7.285-9.768c1.156-1.532 1.867-3.419 1.867-5.486z" stroke="#FF4715" stroke-width="2" stroke-miterlimit="10" stroke-linecap="round" stroke-linejoin="round"/><path d="M18.39 13.203a3.05 3.05 0 100-6.101 3.05 3.05 0 000 6.101z" stroke="#FF4715" stroke-width="2" stroke-miterlimit="10" stroke-linecap="round" stroke-linejoin="round"/><path d="M10.778 24.797H6.186L1 37h34.78l-5.187-12.203h-4.592" stroke="#008891" stroke-width="2" stroke-miterlimit="10" stroke-linecap="round" stroke-linejoin="round"/></symbol><symbol viewBox="0 0 38 38" fill="none" id="card-info-icon-1"><circle cx="19" cy="19" r="18" stroke="#008891" stroke-width="2"/><path d="M24.338 15.187a3.814 3.814 0 00-3.813-3.814h-3.051a3.814 3.814 0 000 7.627h3.05a3.814 3.814 0 010 7.627h-3.05a3.814 3.814 0 01-3.814-3.813M19 11.373V6.797m0 24.406v-4.576" stroke="#FF4715" stroke-width="2" stroke-miterlimit="10"/></symbol><symbol viewBox="0 0 38 38" fill="none" id="card-info-icon-2"><path d="M20.698 36.284L17.116 37l.716-3.582a6.102 6.102 0 011.67-3.117l13.184-13.185L37 21.431 23.816 34.615a6.101 6.101 0 01-3.118 1.669z" stroke="#FF4715" stroke-width="2" stroke-miterlimit="10" stroke-linecap="round" stroke-linejoin="round"/><path d="M28.458 12.715v-2.563M19.305 1H4.051A3.05 3.05 0 001 4.05v29.9A3.05 3.05 0 004.05 37h6.845m17.562-26.848h-6.102a3.05 3.05 0 01-3.05-3.05V1l9.152 9.152zM7.102 15.644h15.254M7.102 21.746h12.325M7.102 27.848h6.557" stroke="#008891" stroke-width="2" stroke-miterlimit="10" stroke-linecap="round" stroke-linejoin="round"/></symbol><symbol viewBox="0 0 14 14" id="cross"><g clip-path="url(#cross_clip0_840_9459)"><path d="M.684 14A.684.684 0 01.2 12.833L12.833.2a.684.684 0 11.967.967L1.167 13.8a.68.68 0 01-.483.2z"/><path d="M13.316 14a.681.681 0 01-.483-.2L.2 1.167A.684.684 0 011.167.2L13.8 12.833A.684.684 0 0113.316 14z"/></g></symbol><symbol viewBox="0 0 40 22" fill="none" id="decor-1"><path d="M7.048 4.945A8 8 0 0114.44 0H32a8 8 0 018 8v14H0L7.048 4.945z" fill="#008891"/></symbol><symbol viewBox="0 0 72 82" fill="none" id="docs-decor"><path transform="matrix(-1 0 0 1 72 0)" fill="#F9F9FB" d="M0 0h22.237v22.208H0z"/><path transform="matrix(-1 0 0 1 72 59.792)" fill="#F9F9FB" d="M0 0h49.605v22.208H0z"/><path d="M72 41H49.763v18.636L72 82V41zm-49.605 0H.158v18.636L22.394 82V41z" fill="currentColor"/></symbol><symbol viewBox="0 0 44 44" fill="none" id="docs-icon-1"><path d="M23.494 22h-2.988a5.975 5.975 0 00-5.975 5.975v1.494H29.47v-1.494c0-3.3-2.675-5.975-5.975-5.975z" stroke="#FF4715" stroke-width="2" stroke-miterlimit="10" stroke-linecap="round" stroke-linejoin="round"/><path d="M26.48 17.519a4.481 4.481 0 11-8.962 0 4.481 4.481 0 018.962 0z" stroke="#FF4715" stroke-width="2" stroke-miterlimit="10" stroke-linecap="round" stroke-linejoin="round"/><path d="M40.385 22c0 10.155-8.232 18.387-18.387 18.387-10.155 0-18.387-8.232-18.387-18.387 0-10.155 8.232-18.387 18.387-18.387 10.155 0 18.387 8.232 18.387 18.387zm-2.613 0H43M.998 22h5.229M22 6.227V1m0 42.001v-5.228" stroke="#008891" stroke-width="2" stroke-miterlimit="10" stroke-linecap="round" stroke-linejoin="round"/></symbol><symbol viewBox="0 0 38 39" fill="none" id="docs-icon-2"><path d="M22.201 14.6V17" stroke="#FF4715" stroke-width="2" stroke-miterlimit="10" stroke-linecap="round" stroke-linejoin="round"/><path d="M15 26h14.4m4.8 12H6.6A3.602 3.602 0 013 34.4c0-1.986 1.613-3.6 3.6-3.6h27.6V38z" stroke="#008891" stroke-width="2" stroke-miterlimit="10" stroke-linecap="round" stroke-linejoin="round"/><path d="M3 34.4c0-1.986 1.613-3.6 3.6-3.6h3.6V2H6.6A3.602 3.602 0 003 5.6v28.8z" stroke="#008891" stroke-width="2" stroke-miterlimit="10" stroke-linecap="round" stroke-linejoin="round"/><path d="M22.2 6.8c3.974 0 7.2 3.226 7.2 7.2s-3.226 7.2-7.2 7.2A7.203 7.203 0 0115 14c0-3.974 3.226-7.2 7.2-7.2z" stroke="#FF4715" stroke-width="2" stroke-miterlimit="10" stroke-linecap="round" stroke-linejoin="round"/><path fill-rule="evenodd" clip-rule="evenodd" d="M22.2 9.88a1.12 1.12 0 110 2.241 1.12 1.12 0 010-2.241z" fill="#FF4715"/><path d="M10.2 30.8h24V2h-24v28.8z" stroke="#008891" stroke-width="2" stroke-miterlimit="10" stroke-linecap="round" stroke-linejoin="round"/></symbol><symbol viewBox="0 0 38 38" fill="none" id="docs-icon-3"><path d="M32.368 6.228h-4.481V3.241a2.24 2.24 0 014.481 0v2.987z" stroke="#008891" stroke-width="2" stroke-miterlimit="10" stroke-linecap="round" stroke-linejoin="round"/><path d="M5.482 8.357h17.926M5.482 13.398h17.926M5.482 18.421h14.9m-5.937 9.541a4.481 4.481 0 11-8.963 0 4.481 4.481 0 018.963 0z" stroke="#FF4715" stroke-width="2" stroke-miterlimit="10" stroke-linecap="round" stroke-linejoin="round"/><path d="M33.265 22.062c0 .542-.117 1.054-.326 1.516-.69 1.525-1.168 3.137-1.168 4.811v.395a2.988 2.988 0 002.988 2.988m-8.962-9.71c0 .541.116 1.054.325 1.516.69 1.525 1.168 3.137 1.168 4.811v.395a2.988 2.988 0 01-2.987 2.988" stroke="#008891" stroke-width="2" stroke-miterlimit="10" stroke-linecap="round" stroke-linejoin="round"/><path d="M35.507 31.772h-11.95c-.826 0-1.494.669-1.494 1.494V37H37v-3.734c0-.825-.669-1.494-1.493-1.494zm-2.241-9.71a3.735 3.735 0 00-7.47 0" stroke="#008891" stroke-width="2" stroke-miterlimit="10" stroke-linecap="round" stroke-linejoin="round"/><path d="M30.129 1H3.24A2.24 2.24 0 001 3.24V37h21.062m5.825-18.292V6.228" stroke="#008891" stroke-width="2" stroke-miterlimit="10" stroke-linecap="round" stroke-linejoin="round"/></symbol><symbol viewBox="0 0 40 38" fill="none" id="docs-icon-4"><path d="M5.657 14.258a42.464 42.464 0 01-3.268.126H1v6.981h1.389c1.093 0 2.182.042 3.265.126m9.306 1.777c5.042 1.563 9.939 4.061 14.118 7.405V5.076c-4.18 3.344-9.076 5.843-14.117 7.405" stroke="#008891" stroke-width="2" stroke-miterlimit="10"/><path d="M34.897 17.875h4.653m-6.3 5.335l3.29 3.291M33.25 12.54l3.29-3.291" stroke="#FF4715" stroke-width="2" stroke-miterlimit="10"/><path d="M12.634 23.692V33H7.98v-9.308m6.98 0H5.652V12.057h9.308v11.635z" stroke="#008891" stroke-width="2" stroke-miterlimit="10"/></symbol><symbol viewBox="0 0 16 16" fill="none" id="done"><path d="M13.33 4l-7.333 7.333L2.664 8" stroke="currentColor" stroke-linecap="square" stroke-linejoin="round"/></symbol><symbol viewBox="0 0 40 40" id="download"><path d="M15.875 19.5L20 23.414l4.125-3.914M20 22.842V13m-6 14h12" stroke="currentColor" stroke-width="2" stroke-miterlimit="10" stroke-linecap="round"/></symbol><symbol viewBox="0 0 38 38" fill="none" id="exp-icon-1"><path d="M11.049 1A8.049 8.049 0 013 9.049C3 21.366 5.06 33.239 19.097 37c14.038-3.761 16.098-15.634 16.098-27.951A8.049 8.049 0 0127.146 1H11.05z" stroke="#008891" stroke-width="2" stroke-miterlimit="22.926" stroke-linecap="round" stroke-linejoin="round"/><path d="M13.195 19.97c0-4.73 4.717-5.718 5.903-10.012 4.13 2.898 3.315 6.638 2.124 8.166 1.189-.035 2.2-.41 3.287-1.25.313 1.049.492 2.103.492 3.096 0 3.164-2.643 5.728-5.903 5.728s-5.903-2.564-5.903-5.728z" stroke="#FF4715" stroke-width="2" stroke-miterlimit="22.926" stroke-linecap="round" stroke-linejoin="round"/></symbol><symbol viewBox="0 0 35 39" fill="none" id="exp-icon-2"><path d="M17.444 37.667c-2.4-4.8-15.6-4.8-15.6-14.4 0-6 2.4-6 2.4-12 0-2.4-2.4-4.8-2.4-4.8l4.8-4.8.7.56a7.584 7.584 0 0010.1-.56h0a7.584 7.584 0 0010.1.56l.7-.56 4.8 4.8s-2.4 2.4-2.4 4.8c0 6 2.4 6 2.4 12 0 9.6-13.2 9.6-15.6 14.4z" stroke="#008891" stroke-width="2" stroke-miterlimit="10" stroke-linecap="round" stroke-linejoin="round"/><path d="M17.442 10.067l2.468 5.002 5.52.802-3.994 3.893.943 5.498-4.938-2.595-4.937 2.595.943-5.498-3.994-3.893 5.52-.802 2.469-5.002z" stroke="#FF4715" stroke-width="2" stroke-miterlimit="10" stroke-linecap="round" stroke-linejoin="round"/></symbol><symbol viewBox="0 0 36 36" fill="none" id="exp-icon-3"><path d="M26.43 8.578H14.133m12.297 5.625H14.133m3.719 5.625h-3.72" stroke="#008891" stroke-width="2" stroke-miterlimit="10" stroke-linecap="round" stroke-linejoin="round"/><path d="M28.613 34.594c1.539-1.947 5.766-1.21 5.766-4.808 0-1.534-.773-2.459-.773-4.052 0-1.268.984-3.204.984-3.204l-1.302-1.298h-9.35l-1.301 1.298s.984 1.947.984 3.215c0 1.593-.773 2.534-.773 4.068 0 3.598 4.227 2.834 5.765 4.78z" stroke="#FF4715" stroke-width="2" stroke-miterlimit="10" stroke-linecap="round" stroke-linejoin="round"/><path d="M8.152 8.016h-6.75V4.957a3.55 3.55 0 013.551-3.55h0a3.55 3.55 0 013.55 3.55v25.418a4.219 4.219 0 004.22 4.219h6.117" stroke="#008891" stroke-width="2" stroke-miterlimit="10" stroke-linecap="round" stroke-linejoin="round"/><path d="M5.691 1.406H27.63a4.219 4.219 0 014.218 4.22v9.983" stroke="#008891" stroke-width="2" stroke-miterlimit="10" stroke-linecap="round" stroke-linejoin="round"/></symbol><symbol viewBox="0 0 34 38" fill="none" id="exp-icon-4"><path d="M7.027 15.797v1.525m6.098-1.525v1.525m-6.098 5.339v1.525m6.098-1.525v1.525m-6.098 5.339v1.526m0-22.119v1.526m6.098-1.526v1.526m6.102-1.526v1.526" stroke="#008891" stroke-width="2" stroke-miterlimit="10" stroke-linecap="round"/><path d="M19 23.345a4.424 4.424 0 118.848 0 4.424 4.424 0 01-8.848 0z" stroke="#FF4715" stroke-width="2" stroke-miterlimit="10" stroke-linecap="round" stroke-linejoin="round"/><path d="M23.426 27.814c4.415 0 8.1 3.134 8.966 7.304v-.02c.202.97-.53 1.902-1.518 1.902H15.978c-.988 0-1.72-.912-1.519-1.882.866-4.17 4.552-7.304 8.967-7.304z" stroke="#FF4715" stroke-width="2" stroke-miterlimit="10" stroke-linecap="round" stroke-linejoin="round"/><path d="M25.33 13.05V4.815h-3.05V1H4.05v3.814H1V37h7.627" stroke="#008891" stroke-width="2" stroke-miterlimit="10" stroke-linecap="round" stroke-linejoin="round"/></symbol><symbol viewBox="0 0 38 40" fill="none" id="exp-icon-5"><path d="M19.119 2l4.732 3.438h5.848L31.507 11l4.731 3.438L34.431 20l1.807 5.562L31.507 29l-1.808 5.562h-5.848L19.119 38l-4.732-3.438H8.54L6.732 29 2 25.562 3.807 20 2 14.438 6.732 11l1.807-5.562h5.848L19.12 2z" stroke="#008891" stroke-width="2" stroke-miterlimit="10"/><path d="M12.238 19.45l4.954 4.954L26 15.597" stroke="#FF4715" stroke-width="2" stroke-miterlimit="10"/></symbol><symbol viewBox="0 0 38 38" fill="none" id="exp-icon-6"><path d="M18.695 37v-3.05a3.051 3.051 0 013.051-3.052H33.95A3.05 3.05 0 0137 33.95V37H18.695z" stroke="#FF4715" stroke-width="2" stroke-miterlimit="10" stroke-linecap="round" stroke-linejoin="round"/><path d="M27.848 6.492V1H1v36h11.593" stroke="#008891" stroke-width="2" stroke-miterlimit="10" stroke-linecap="round" stroke-linejoin="round"/><path d="M10.762 10.305l2.288 2.288 4.576-4.576M7.102 21.746h8.542m-8.542 6.102h5.491" stroke="#008891" stroke-width="2" stroke-miterlimit="10" stroke-linecap="round" stroke-linejoin="round"/><path d="M24.795 30.898s-1.526-12.197-1.526-13.729a4.576 4.576 0 019.153 0c0 1.532-1.525 13.73-1.525 13.73" stroke="#FF4715" stroke-width="2" stroke-miterlimit="10" stroke-linecap="round" stroke-linejoin="round"/></symbol><symbol viewBox="0 0 41 38" fill="none" id="exp-icon-7"><path d="M39.56 29.8H1V1h38.56v28.8zm-24.078 0v4.8l-2.4 2.4h14.4l-2.4-2.4v-4.8" stroke="#008891" stroke-width="2" stroke-miterlimit="10"/><path d="M13 15.167l5.5 5.5 11-11" stroke="#FF4715" stroke-width="2"/></symbol><symbol viewBox="0 0 38 38" fill="none" id="exp-icon-8"><path d="M34 1H4C2.35 1 1 2.35 1 4v21.976c0 1.65 1.35 3 3 3h10.2l3.458 6.917c.738 1.476 1.946 1.476 2.683 0l3.459-6.917H34c1.65 0 3-1.35 3-3V4c0-1.65-1.35-3-3-3zM1 4v21.976" stroke="#008891" stroke-width="2" stroke-miterlimit="10" stroke-linecap="round" stroke-linejoin="round"/><path d="M24.864 12.326l-3.134-.456-1.401-2.84c-.73-1.479-1.926-1.479-2.656 0l-1.401 2.84-3.134.456c-1.633.237-2.003 1.374-.82 2.526l2.267 2.21-.536 3.122c-.278 1.626.688 2.328 2.149 1.56L19 20.271l2.803 1.473c1.46.768 2.427.066 2.148-1.56l-.535-3.122 2.268-2.21c1.181-1.152.812-2.289-.82-2.526z" stroke="#FF4715" stroke-width="2" stroke-miterlimit="10" stroke-linecap="round" stroke-linejoin="round"/></symbol><symbol viewBox="0 0 17 21" fill="none" id="exp-icon-doc"><path d="M16 6.196V20H1V1h9.667M16 6.196L10.667 1M16 6.196h-5.332L10.667 1" stroke="#008891" stroke-width="1.4" stroke-miterlimit="10"/></symbol><symbol viewBox="0 0 20 20" fill="none" id="eye"><path d="M.834 10.003s3.333-6.667 9.167-6.667c5.833 0 9.166 6.667 9.166 6.667s-3.333 6.666-9.166 6.666c-5.834 0-9.167-6.666-9.167-6.666z" stroke="currentColor" stroke-width="1.333" stroke-linecap="round" stroke-linejoin="round"/><path d="M10 12.5a2.5 2.5 0 100-5 2.5 2.5 0 000 5z" stroke="currentColor" stroke-width="1.333" stroke-linecap="round" stroke-linejoin="round"/></symbol><symbol viewBox="0 0 20 20" fill="none" id="eye-closed"><path d="M8.25 3.536a7.6 7.6 0 011.75-.2c5.834 0 9.167 6.667 9.167 6.667a15.413 15.413 0 01-1.8 2.658m-5.6-.892a2.502 2.502 0 01-3.596.064 2.5 2.5 0 01.063-3.597m6.717 6.717A8.392 8.392 0 0110 16.669c-5.834 0-9.167-6.666-9.167-6.666a15.375 15.375 0 014.217-4.95l9.9 9.9zM.834.836l18.333 18.333" stroke="currentColor" stroke-width="1.333" stroke-linecap="round" stroke-linejoin="round"/></symbol><symbol viewBox="0 0 40 40" fill="none" id="eye-exp"><path d="M29 20s-2.898 6-9 6-9-6-9-6 2.898-6 9-6 9 6 9 6z" stroke="currentColor" stroke-width="2" stroke-miterlimit="10" stroke-linecap="round" stroke-linejoin="round"/><path d="M23.05 20c0-1.657-1.365-3-3.05-3-1.685 0-3.05 1.343-3.05 3s1.365 3 3.05 3c1.685 0 3.05-1.343 3.05-3z" stroke="currentColor" stroke-width="2" stroke-miterlimit="10" stroke-linecap="round" stroke-linejoin="round"/></symbol><symbol viewBox="0 0 18 16" fill="none" id="favorite"><path d="M9.804 1.815l.003-.002a4.536 4.536 0 016.38-.002 4.552 4.552 0 01-.001 6.4h-.001l-7.263 7.274L1.675 8.21a4.527 4.527 0 01.148-6.242 4.512 4.512 0 016.23-.148l.516.514.35.348.352-.345.533-.521h0z" stroke="currentColor"/></symbol><symbol viewBox="0 0 18 18" fill="none" id="glass"><path d="M17 17l-5.075-5.075M1 7.4a6.4 6.4 0 1012.8 0A6.4 6.4 0 001 7.4z" stroke="#008891" stroke-width="2" stroke-miterlimit="10" stroke-linecap="round" stroke-linejoin="round"/></symbol><symbol viewBox="0 0 51 49" fill="none" id="icon-doc"><path fill-rule="evenodd" clip-rule="evenodd" d="M15 4.983C15 3.324 16.326 2 17.936 2H36.11v8.072c0 2.741 2.198 4.984 4.936 4.984H49v28.96C49 45.677 47.675 47 46.064 47H17.936C16.326 47 15 45.676 15 44.017V36h-2v8.017C13 46.757 15.198 49 17.936 49h28.128C48.802 49 51 46.758 51 44.017V14.055a1 1 0 00-.287-.7L37.88.299 37.585 0h-19.65C15.2 0 13 2.242 13 4.983V13h2V4.983zm23.11 5.09V3.388l9.505 9.668h-6.569c-1.61 0-2.935-1.325-2.935-2.983z" fill="#008891"/><rect x="1" y="17" width="31" height="16" rx="2" stroke="#FF4715" stroke-width="2"/><path d="M7.592 29H4.756v-8h2.86c.804 0 1.497.16 2.077.48a3.24 3.24 0 011.34 1.372c.315.596.473 1.31.473 2.14 0 .834-.158 1.55-.473 2.149a3.248 3.248 0 01-1.347 1.379c-.584.32-1.282.48-2.094.48zm-1.145-1.45h1.074c.5 0 .921-.088 1.262-.265a1.71 1.71 0 00.774-.832c.174-.377.261-.864.261-1.46 0-.592-.087-1.075-.261-1.45a1.695 1.695 0 00-.77-.828c-.341-.177-.762-.266-1.262-.266H6.447v5.102zM20.11 25c0 .872-.165 1.615-.496 2.227a3.441 3.441 0 01-1.344 1.402c-.565.32-1.2.48-1.906.48-.71 0-1.349-.161-1.914-.484a3.448 3.448 0 01-1.34-1.402c-.328-.612-.492-1.353-.492-2.223 0-.872.164-1.615.492-2.227a3.422 3.422 0 011.34-1.398c.565-.323 1.203-.484 1.914-.484.706 0 1.341.161 1.906.484.568.32 1.016.787 1.344 1.398.331.612.496 1.355.496 2.227zm-1.715 0c0-.565-.084-1.042-.253-1.43-.167-.388-.403-.682-.707-.883-.305-.2-.662-.3-1.07-.3-.41 0-.766.1-1.071.3-.305.201-.542.495-.711.883-.167.388-.25.865-.25 1.43s.083 1.042.25 1.43c.17.388.406.682.71.883.306.2.662.3 1.071.3.41 0 .766-.1 1.07-.3.305-.201.54-.495.708-.883.169-.388.253-.865.253-1.43zm10.027-1.2H26.71a1.671 1.671 0 00-.191-.59 1.5 1.5 0 00-.372-.444 1.632 1.632 0 00-.523-.282 2.002 2.002 0 00-.637-.097c-.414 0-.774.103-1.082.308-.307.203-.545.5-.715.89-.169.389-.253.86-.253 1.415 0 .57.084 1.05.253 1.438.172.388.412.68.72.878a1.92 1.92 0 001.066.297 2.1 2.1 0 00.628-.09 1.66 1.66 0 00.52-.261 1.51 1.51 0 00.375-.426c.102-.167.172-.357.21-.57l1.712.007a3.19 3.19 0 01-1.04 1.973 3.327 3.327 0 01-1.054.633c-.406.154-.866.23-1.379.23-.713 0-1.351-.161-1.914-.484a3.44 3.44 0 01-1.328-1.402c-.323-.612-.484-1.353-.484-2.223 0-.872.164-1.615.492-2.227a3.43 3.43 0 011.336-1.398c.562-.323 1.195-.484 1.898-.484.464 0 .893.065 1.29.195.398.13.75.32 1.058.57.307.248.557.551.75.91.195.36.32.771.375 1.235z" fill="#FF4715"/></symbol><symbol viewBox="0 0 24 22" fill="none" id="icon-nav-1"><path d="M20.62 16c1.315 0 2.38 1.12 2.38 2.5S21.935 21 20.62 21c-1.314 0-2.38-1.12-2.38-2.5s1.066-2.5 2.38-2.5zm0 0v-5H3.38v5M12 6c-1.314 0-2.38-1.12-2.38-2.5S10.686 1 12 1c1.314 0 2.38 1.12 2.38 2.5S13.313 6 12 6zm0 0v10.007M3.38 16c1.314 0 2.38 1.12 2.38 2.5S4.693 21 3.38 21C2.065 21 1 19.88 1 18.5S2.065 16 3.38 16zm6.24 2.5c0 1.38 1.066 2.5 2.38 2.5 1.314 0 2.38-1.12 2.38-2.5S13.313 16 12 16c-1.314 0-2.38 1.12-2.38 2.5z" stroke="#fff" stroke-width="2" stroke-miterlimit="10" stroke-linecap="round" stroke-linejoin="round"/></symbol><symbol viewBox="0 0 24 24" fill="none" id="icon-nav-2"><path d="M12 16.371V12.7a1.72 1.72 0 00-1.719-1.719h-.43m0 5.434h4.298M1.86 12C1.86 6.4 6.4 1.86 12 1.86c5.6 0 10.14 4.54 10.14 10.14 0 5.6-4.54 10.14-10.14 10.14C6.4 22.14 1.86 17.6 1.86 12z" stroke="#fff" stroke-width="2" stroke-miterlimit="10" stroke-linecap="round" stroke-linejoin="round"/><circle cx="12.029" cy="7.818" r="1.06" fill="#fff"/></symbol><symbol viewBox="0 0 24 24" fill="none" id="icon-nav-3"><path d="M7.49 7.735h8.98m-8.98 4.49h8.98m-8.98 4.49h4.49m6.077-15.057l2.245 2.244c.406.407.657.968.657 1.588v15.265A2.245 2.245 0 0118.714 23H5.244A2.245 2.245 0 013 20.755V3.245A2.245 2.245 0 015.245 1h11.224c.62 0 1.181.251 1.588.658z" stroke="#fff" stroke-width="2" stroke-miterlimit="10" stroke-linecap="round" stroke-linejoin="round"/></symbol><symbol viewBox="0 0 25 26" fill="none" id="icon-nav-4"><path d="M8.28 12.664l3.038 3.027 5.402-5.382M12.5 2l2.902 2.1h3.587l1.109 3.4L23 9.6 21.892 13 23 16.4l-2.902 2.1-1.109 3.4h-3.587L12.5 24l-2.902-2.1H6.01l-1.109-3.4L2 16.4 3.108 13 2 9.6l2.902-2.1 1.109-3.4h3.587L12.5 2z" stroke="#fff" stroke-width="2" stroke-miterlimit="10"/></symbol><symbol viewBox="0 0 24 24" fill="none" id="icon-nav-5"><path d="M2.88 20.156a2.78 2.78 0 012.781-2.78H18.22A2.78 2.78 0 0021 14.594V3.845a2.78 2.78 0 00-2.78-2.781H5.661a2.78 2.78 0 00-2.78 2.78v16.312zm0 0a2.78 2.78 0 002.781 2.78H18.22a2.78 2.78 0 002.78-2.78M8.488 6.393h6.951" stroke="#fff" stroke-width="2" stroke-miterlimit="10" stroke-linecap="round" stroke-linejoin="round"/></symbol><symbol viewBox="0 0 24 24" fill="none" id="icon-nav-6"><path d="M10.068 18.204H6v-4.068h4.068v4.068zm3.052-4.068h5.694m-5.694 4.068h5.694m-1.017-8.136H6V6h11.797v4.068z" stroke="#fff" stroke-width="2" stroke-miterlimit="10"/><rect x="2" y="2" width="20" height="20" rx="2" stroke="#fff" stroke-width="2"/></symbol><symbol viewBox="0 0 24 24" fill="none" id="icon-nav-7"><path d="M23 19.156C23 20.726 21.748 22 20.203 22H3.797C2.252 22 1 20.727 1 19.156v-10.9c0-1.57 1.252-2.844 2.797-2.844h-.004c.785 0 1.486-.5 1.753-1.252l.323-.908A1.866 1.866 0 017.623 2h5.955c.798 0 1.508.517 1.765 1.285l.282.842a1.867 1.867 0 001.765 1.285h2.813C21.748 5.412 23 6.685 23 8.256v6.161" stroke="#fff" stroke-width="2" stroke-miterlimit="10" stroke-linecap="round" stroke-linejoin="round"/><path d="M15.31 13.232c0 2.748-2.192 4.977-4.894 4.977-2.703 0-4.895-2.229-4.895-4.977s2.192-4.976 4.895-4.976c2.702 0 4.894 2.228 4.894 4.976z" stroke="#fff" stroke-width="2" stroke-miterlimit="10" stroke-linecap="square" stroke-linejoin="round"/><path d="M18.293 9.204h.979" stroke="#fff" stroke-width="2" stroke-miterlimit="10" stroke-linecap="round" stroke-linejoin="round"/></symbol><symbol viewBox="0 0 51 49" fill="none" id="icon-pdf"><path fill-rule="evenodd" clip-rule="evenodd" d="M15 4.983C15 3.324 16.326 2 17.936 2H36.11v8.072c0 2.741 2.198 4.984 4.936 4.984H49v28.96C49 45.677 47.675 47 46.064 47H17.936C16.326 47 15 45.676 15 44.017V36h-2v8.017C13 46.757 15.198 49 17.936 49h28.128C48.802 49 51 46.758 51 44.017V14.055a1 1 0 00-.287-.7L37.88.299 37.585 0h-19.65C15.2 0 13 2.242 13 4.983V13h2V4.983zm23.11 5.09V3.388l9.505 9.668h-6.569c-1.61 0-2.935-1.325-2.935-2.983z" fill="#008891"/><rect x="1" y="17" width="31" height="16" rx="2" stroke="#FF4715" stroke-width="2"/><path d="M5.916 29v-8h3.156c.607 0 1.123.116 1.55.348.428.229.753.548.977.957.227.406.34.875.34 1.406 0 .531-.115 1-.344 1.406a2.375 2.375 0 01-.996.95c-.432.226-.956.34-1.57.34H7.017V25.05h1.738c.326 0 .594-.056.805-.168.214-.115.372-.272.477-.473a1.48 1.48 0 00.16-.7c0-.265-.054-.497-.16-.694a1.07 1.07 0 00-.477-.465c-.213-.112-.484-.168-.812-.168H7.607V29H5.916zm9.957 0h-2.835v-8h2.859c.805 0 1.497.16 2.078.48.58.318 1.027.775 1.34 1.372.315.596.473 1.31.473 2.14 0 .834-.158 1.55-.473 2.149a3.248 3.248 0 01-1.348 1.379c-.583.32-1.281.48-2.093.48zm-1.144-1.45h1.074c.5 0 .92-.088 1.262-.265a1.71 1.71 0 00.773-.832c.175-.377.262-.864.262-1.46 0-.592-.087-1.075-.262-1.45a1.695 1.695 0 00-.77-.828c-.34-.177-.76-.266-1.26-.266h-1.079v5.102zM21.041 29v-8h5.296v1.395h-3.605V24.3h3.254v1.394h-3.254V29H21.04z" fill="#FF4715"/></symbol><symbol viewBox="0 0 51 49" fill="none" id="icon-xls"><path fill-rule="evenodd" clip-rule="evenodd" d="M15 4.983C15 3.324 16.326 2 17.936 2H36.11v8.072c0 2.741 2.198 4.984 4.936 4.984H49v28.96C49 45.677 47.675 47 46.064 47H17.936C16.326 47 15 45.676 15 44.017V36h-2v8.017C13 46.757 15.198 49 17.936 49h28.128C48.802 49 51 46.758 51 44.017V14.055a1 1 0 00-.287-.7L37.88.299 37.585 0h-19.65C15.2 0 13 2.242 13 4.983V13h2V4.983zm23.11 5.09V3.388l9.505 9.668h-6.569c-1.61 0-2.935-1.325-2.935-2.983z" fill="#008891"/><rect x="1" y="17" width="31" height="16" rx="2" stroke="#FF4715" stroke-width="2"/><path d="M7.625 21l1.613 2.727h.063L10.92 21h1.911l-2.441 4 2.496 4H10.94L9.3 26.27h-.063L7.598 29H5.66l2.504-4-2.457-4h1.918zm6.277 8v-8h1.692v6.605h3.43V29h-5.122zm10.581-5.7a.989.989 0 00-.402-.734c-.237-.174-.558-.261-.965-.261-.276 0-.509.039-.699.117a.984.984 0 00-.438.316.761.761 0 00-.148.461.658.658 0 00.09.375c.068.107.16.2.277.278.117.075.253.142.407.199.153.055.317.101.492.14l.718.172c.35.078.67.183.961.313.292.13.545.29.758.48.214.19.38.414.496.672.12.258.181.553.184.887-.003.49-.128.914-.375 1.273-.245.357-.6.634-1.063.832-.46.196-1.017.293-1.668.293-.645 0-1.208-.099-1.687-.297a2.471 2.471 0 01-1.117-.878c-.266-.391-.405-.874-.418-1.45h1.637c.018.268.095.492.23.672.138.177.322.311.55.402.232.089.494.133.786.133.286 0 .535-.041.746-.125.213-.083.379-.199.496-.347a.804.804 0 00.176-.512c0-.18-.054-.33-.16-.453a1.214 1.214 0 00-.461-.313 4.69 4.69 0 00-.738-.234l-.872-.219c-.674-.164-1.207-.42-1.597-.77-.39-.348-.585-.818-.582-1.41a2.096 2.096 0 01.386-1.269 2.609 2.609 0 011.082-.848c.459-.203.98-.304 1.563-.304.594 0 1.112.101 1.555.304a2.46 2.46 0 011.039.848c.247.362.375.781.383 1.258h-1.622z" fill="#FF4715"/></symbol><symbol viewBox="0 0 12 22" fill="none" id="loading"><path d="M1 21c5.523 0 10-4.477 10-10S6.523 1 1 1" stroke="#008891" stroke-width="2" stroke-linecap="round"/></symbol><symbol viewBox="0 0 142 48" fill="none" id="logo"><path fill="#fff" d="M0 0h13v13H0zm0 35h29v13H0z"/><path d="M0 24h13v10.91L0 48V24zm29 0h13v10.91L29 48V24z" fill="#FF4715"/><path d="M28.813.364h3.159v6.09h.09L36.2.365h2.682V12h-3.16V5.886h-.068L31.45 12h-2.637V.364zM40.855 12V.364h3.16v4.545h4.18V.364h3.16V12h-3.16V7.455h-4.18V12h-3.16zm17.48-10.477h3.114c.977 0 1.842.199 2.596.596.758.398 1.35.962 1.779 1.693.431.732.647 1.597.647 2.597 0 .947-.216 1.767-.647 2.46a4.303 4.303 0 01-1.779 1.608c-.754.38-1.62.569-2.596.569h-3.114c-.985 0-1.858-.188-2.62-.563a4.29 4.29 0 01-1.783-1.608c-.428-.697-.643-1.527-.643-2.489 0-1 .218-1.863.654-2.59a4.464 4.464 0 011.795-1.682c.762-.394 1.627-.591 2.597-.591zm0 2.59c-.394 0-.758.074-1.09.222-.33.148-.596.388-.796.722-.197.333-.296.776-.296 1.33 0 .507.102.912.307 1.215.208.303.477.521.807.654.333.132.69.199 1.068.199h3.136a2.66 2.66 0 001.057-.205c.322-.14.578-.36.767-.66.193-.302.29-.696.29-1.18 0-.554-.097-.999-.29-1.336a1.703 1.703 0 00-.767-.733 2.427 2.427 0 00-1.057-.227h-3.136zM61.358.16v12.318h-2.955V.16h2.955zm18.324 6.023c0 1.295-.252 2.388-.756 3.278-.504.887-1.184 1.559-2.04 2.017-.856.455-1.81.682-2.864.682-1.06 0-2.019-.23-2.875-.687-.852-.463-1.53-1.137-2.034-2.023-.5-.89-.75-1.98-.75-3.267 0-1.296.25-2.387.75-3.273.504-.89 1.182-1.562 2.034-2.017.856-.458 1.815-.687 2.875-.687 1.053 0 2.008.229 2.864.687.856.455 1.536 1.127 2.04 2.017.504.886.755 1.977.755 3.273zm-3.25 0c0-.697-.093-1.284-.279-1.762-.182-.48-.453-.844-.812-1.09-.356-.25-.796-.375-1.319-.375-.522 0-.964.125-1.324.375-.355.246-.626.61-.812 1.09-.182.478-.273 1.065-.273 1.762 0 .697.091 1.286.273 1.767.186.477.457.84.813 1.09.36.247.8.37 1.323.37.523 0 .962-.123 1.319-.37.36-.25.63-.613.812-1.09.186-.481.278-1.07.278-1.767zM81.237 12V9.568l.318-.045c.386-.06.706-.228.96-.5.258-.277.455-.714.591-1.313.14-.602.23-1.422.267-2.46l.182-4.886h8.432V12H88.94V2.818h-2.477l-.182 3.66c-.068 1.355-.25 2.437-.545 3.244-.296.806-.745 1.388-1.347 1.744-.602.356-1.396.534-2.38.534h-.773zm21.794-6.932v2.455h-5.16V5.068h5.16zm-9.091 3h3.113c-.015.568.146.987.483 1.256.341.269.81.403 1.404.403.553 0 .973-.108 1.261-.324.292-.22.491-.562.597-1.028.11-.47.165-1.08.165-1.83v-.704c0-.735-.063-1.335-.188-1.801-.125-.466-.33-.809-.614-1.029-.284-.22-.668-.33-1.153-.33-.53 0-.938.07-1.222.211-.284.14-.479.341-.585.602a2.64 2.64 0 00-.17.938h-3.114a4.96 4.96 0 01.699-2.13c.39-.641.949-1.15 1.676-1.53.727-.378 1.633-.567 2.716-.567 1.015 0 1.898.229 2.648.687.753.455 1.337 1.106 1.75 1.955.416.844.625 1.85.625 3.017v.681c0 1.167-.201 2.17-.603 3.012-.401.837-.981 1.48-1.738 1.932-.758.447-1.674.67-2.75.67-.977 0-1.835-.167-2.574-.5-.735-.337-1.314-.81-1.739-1.42-.42-.614-.65-1.337-.687-2.17zM105.958 12V.364h3.159v4.545h4.182V.364h3.159V12h-3.159V7.455h-4.182V12h-3.159zm12.094 2.796V9.568h.818a2.59 2.59 0 00.739-.704c.223-.303.412-.737.568-1.302.159-.564.276-1.32.352-2.267l.386-4.931h8.228v9.204h1.227v5.228h-3.046V12h-6.227v2.796h-3.045zm4.432-5.228h3.613V2.91h-2.341l-.182 2.386a14.837 14.837 0 01-.244 1.87 8.97 8.97 0 01-.381 1.386 6.53 6.53 0 01-.465 1.017z" fill="#fff"/></symbol><symbol viewBox="0 0 18 18" fill="none" id="message"><path d="M10.209 13.357h-.185l-.14.12-4.417 3.767v-3.887H1.7c-.641 0-1.2-.557-1.2-1.214V1.714C.5 1.057 1.059.5 1.7.5h14.6c.641 0 1.2.557 1.2 1.214v10.429c0 .657-.559 1.214-1.2 1.214h-6.091z" stroke="#878787"/></symbol><symbol viewBox="0 0 20 20" fill="none" id="ok"><path d="M5.147 10.514c-.408.703.056 1.039 1.114 1.613.9.486 2.144.664 2.943.735l-3.148 2.65c-.916.767.559 2 1.474 1.248l2.479-2.091c.948.798 1.858 1.564 2.478 2.094.916.755 2.39-.467 1.484-1.249l-3.158-2.649c.81-.07 2.034-.26 2.924-.735h-.001c1.059-.578 1.523-.913 1.12-1.616-.243-.4-.9-.733-1.773-.156 0 0-1.18.79-3.082.79-1.903 0-3.081-.79-3.081-.79-.873-.58-1.532-.243-1.773.156z" fill="currentColor"/><path d="M10 10.083c2.319 0 4.213-1.586 4.213-3.538C14.213 4.585 12.319 3 10 3 7.68 3 5.787 4.585 5.787 6.545c0 1.952 1.893 3.538 4.213 3.538zm0-5.287c1.14 0 2.069.782 2.069 1.75 0 .958-.93 1.74-2.069 1.74-1.14 0-2.069-.782-2.069-1.74 0-.968.929-1.75 2.069-1.75z" fill="currentColor"/></symbol><symbol viewBox="0 0 18 18" fill="none" id="photo"><rect x=".5" y=".5" width="17" height="17" rx="2.5" stroke="#878787"/><path d="M1 14l5.016-5.54a1.328 1.328 0 012.01 0l2.707 2.99 1.287-1.421a1.328 1.328 0 012.009 0l3.471 3.834" stroke="#878787" stroke-miterlimit="10" stroke-linecap="round"/><path d="M9.496 4.455a1.455 1.455 0 102.91 0 1.455 1.455 0 00-2.91 0z" stroke="#878787" stroke-miterlimit="10"/></symbol><symbol viewBox="0 0 86 86" fill="none" id="play"><circle cx="43" cy="43" r="37.2" stroke="#fff" stroke-width="1.6"/><path fill-rule="evenodd" clip-rule="evenodd" d="M53.515 42.18l-16.06-9.052a.987.987 0 00-.484-.128h-.002a.988.988 0 00-.84.474.92.92 0 00-.129.474v18.103c0 .167.044.33.129.475a.957.957 0 00.355.347.986.986 0 00.97-.001l16.061-9.052a.958.958 0 00.355-.347.929.929 0 000-.947.958.958 0 00-.355-.346z" fill="#fff"/></symbol><symbol viewBox="0 0 54 54" id="plus"><path d="M24.75 24.75v-9h4.5v9h9v4.5h-9v9h-4.5v-9h-9v-4.5h9zM27 49.5C14.573 49.5 4.5 39.427 4.5 27S14.573 4.5 27 4.5 49.5 14.573 49.5 27 39.427 49.5 27 49.5zm0-4.5a18 18 0 100-36 18 18 0 000 36z"/></symbol><symbol viewBox="0 0 25 15" fill="none" id="quote"><path d="M0 0h9v6.818L0 15V0zm16 0h9v6.818L16 15V0z" fill="#FF4715"/></symbol><symbol viewBox="0 0 16 16" id="search"><path d="M7.334 1.333c3.312 0 6 2.688 6 6s-2.688 6-6 6-6-2.688-6-6 2.688-6 6-6zm0 10.667a4.666 4.666 0 004.667-4.667 4.665 4.665 0 00-4.667-4.666 4.665 4.665 0 00-4.667 4.666A4.665 4.665 0 007.334 12zm5.657.047l1.886 1.886-.944.943-1.885-1.886.943-.943z"/></symbol><symbol viewBox="0 0 20 20" fill="none" id="share"><path d="M15.799 4.2A4.105 4.105 0 0010 4.2l-.387.386a.547.547 0 000 .773l.773.773a.547.547 0 00.774 0l.386-.386a1.914 1.914 0 112.707 2.706l-1.934 1.934a1.926 1.926 0 01-2.576.118l-.42-.35a.545.545 0 00-.77.069l-.7.84a.547.547 0 00.069.77l.42.35a4.077 4.077 0 005.524-.251l1.933-1.933a4.102 4.102 0 000-5.8z" fill="currentColor"/><path d="M9.614 13.866a.547.547 0 00-.773 0l-.387.386a1.913 1.913 0 11-2.707-2.707l1.934-1.933a1.924 1.924 0 012.576-.118l.42.35a.547.547 0 00.77-.069l.7-.84a.547.547 0 00-.069-.77l-.42-.35a4.077 4.077 0 00-5.524.25L4.201 10a4.102 4.102 0 005.8 5.8l.386-.387a.546.546 0 000-.773l-.773-.773z" fill="currentColor"/></symbol><symbol viewBox="0 0 128 128" id="spinner"><path d="M64 9.75A54.25 54.25 0 009.75 64H0a64 64 0 01128 0h-9.75A54.25 54.25 0 0064 9.75z"/></symbol><symbol viewBox="0 0 20 20" fill="none" id="tg"><path d="M18 3.482l-2.53 12.552s-.354.87-1.328.453L8.276 12.07c.789-.698 6.905-6.108 7.173-6.353.413-.38.157-.606-.324-.319L6.09 11.043 2.605 9.889s-.55-.192-.602-.61c-.053-.418.62-.644.62-.644l14.21-5.484S18 2.646 18 3.481z" fill="currentColor"/></symbol><symbol viewBox="0 0 38 38" fill="none" id="to-employee-icon-1"><circle cx="19" cy="19" r="18" stroke="#008891" stroke-width="2"/><path d="M24.338 15.187a3.814 3.814 0 00-3.813-3.814h-3.051a3.814 3.814 0 000 7.627h3.05a3.814 3.814 0 010 7.627h-3.05a3.814 3.814 0 01-3.814-3.813M19 11.373V6.797m0 24.406v-4.576" stroke="#FF4715" stroke-width="2" stroke-miterlimit="10"/></symbol><symbol viewBox="0 0 39 38" fill="none" id="to-employee-icon-2"><path d="M30.407 22.822l-5.41-4.611c-.771-.658-1.237-1.62-1.23-2.634l.004-.125a3.78 3.78 0 013.657-3.613 3.758 3.758 0 012.98 1.331 3.758 3.758 0 012.978-1.33 3.78 3.78 0 013.661 3.751 3.45 3.45 0 01-1.232 2.626l-5.408 4.605z" stroke="#FF4715" stroke-width="2" stroke-miterlimit="10" stroke-linecap="round" stroke-linejoin="round"/><path d="M15.146 5.482a2.243 2.243 0 002.246-2.241A2.243 2.243 0 0015.146 1 2.243 2.243 0 0012.9 3.24a2.243 2.243 0 002.246 2.242zm-8.984 0A2.243 2.243 0 008.407 3.24 2.243 2.243 0 006.162 1a2.243 2.243 0 00-2.246 2.24 2.243 2.243 0 002.246 2.242z" stroke="#008891" stroke-width="2" stroke-miterlimit="10" stroke-linecap="round" stroke-linejoin="round"/><path d="M3.915 3.328H1v6.114c0 5.402 4.388 9.78 9.802 9.78 5.413 0 9.801-4.378 9.801-9.78V3.231H17.39" stroke="#008891" stroke-width="2" stroke-miterlimit="10" stroke-linecap="round" stroke-linejoin="round"/><path d="M30.405 27.126c0 5.453-4.421 9.874-9.875 9.874-5.453 0-9.874-4.42-9.874-9.874v-7.913" stroke="#008891" stroke-width="2" stroke-miterlimit="10" stroke-linecap="round" stroke-linejoin="round"/></symbol><symbol viewBox="0 0 38 38" fill="none" id="to-employee-icon-3"><path d="M20.42 37H3.987A2.988 2.988 0 011 34.013V3.988A2.988 2.988 0 013.988 1h16.431a2.988 2.988 0 012.988 2.988v30.025A2.988 2.988 0 0120.419 37zM1 32.519h22.407M10.71 5.481h2.988" stroke="#008891" stroke-width="2" stroke-miterlimit="10" stroke-linecap="round" stroke-linejoin="round"/><path d="M7.723 5.481a1.12 1.12 0 11-2.24 0 1.12 1.12 0 012.24 0z" fill="#008891"/><path d="M12.203 18.963a5.228 5.228 0 00-5.228 5.228v.747H17.43v-.747a5.228 5.228 0 00-5.228-5.228z" stroke="#FF4715" stroke-width="2" stroke-miterlimit="10" stroke-linecap="round" stroke-linejoin="round"/><path d="M15.192 15.975a2.988 2.988 0 11-5.975 0 2.988 2.988 0 015.975 0z" stroke="#FF4715" stroke-width="2" stroke-miterlimit="10" stroke-linecap="round" stroke-linejoin="round"/><path d="M28.038 8.607a1.12 1.12 0 110-2.24 1.12 1.12 0 010 2.24z" fill="#FF4715"/><path d="M31.205 4.318a4.481 4.481 0 010 6.338m3.17-9.506c3.5 3.5 3.5 9.174 0 12.675" stroke="#FF4715" stroke-width="2" stroke-miterlimit="10" stroke-linecap="round" stroke-linejoin="round"/></symbol><symbol viewBox="0 0 38 32" fill="none" id="to-employee-icon-4"><path d="M37 6.593V31H1V6.593" stroke="#008891" stroke-width="2" stroke-miterlimit="10"/><path d="M26.364 21.373a10.416 10.416 0 00-7.366 3.05 10.416 10.416 0 00-7.365-3.05H6.795V1.543h6.102a6.102 6.102 0 016.101 6.1 6.102 6.102 0 016.102-6.1h6.102v19.83h-4.838zM19 7.644v16.78" stroke="#FF4715" stroke-width="2" stroke-miterlimit="10"/></symbol><symbol viewBox="0 0 38 38" fill="none" id="to-employee-icon-5"><path d="M7.102 22.356V1h23.796v21.356" stroke="#008891" stroke-width="2" stroke-miterlimit="10" stroke-linecap="round" stroke-linejoin="round"/><path d="M1 19.305l18 9.153 18-9.153V33.95A3.05 3.05 0 0133.95 37H4.05A3.05 3.05 0 011 33.95V19.304z" stroke="#008891" stroke-width="2" stroke-miterlimit="10" stroke-linecap="round" stroke-linejoin="round"/><path d="M1 19.305v-3.05a6.102 6.102 0 016.102-6.102m23.796 0A6.102 6.102 0 0137 16.254v3.051" stroke="#008891" stroke-width="2" stroke-miterlimit="10" stroke-linecap="round" stroke-linejoin="round"/><path d="M13.203 7.102h11.593m-11.593 6.101h3.051m5.492 0h3.05m-11.593 6.102h11.593" stroke="#FF4715" stroke-width="2" stroke-miterlimit="10" stroke-linecap="round" stroke-linejoin="round"/></symbol><symbol viewBox="0 0 24 24" fill="none" id="trophie-1"><path d="M12 2.566l3.143 6.324L22 9.912l-4.914 4.957 1.2 7.131L12 18.564 5.714 22l1.2-7.13L2 9.911 8.857 8.89 12 2.566z" stroke="#008891" stroke-width="1.6" stroke-miterlimit="10"/></symbol><symbol viewBox="0 0 20 20" fill="none" id="trophie-2"><path d="M11.065 3.191h0l.003-.003a4.795 4.795 0 016.744-.003 4.813 4.813 0 01-.003 6.767L9.913 17.86 2.038 9.952a4.786 4.786 0 01.16-6.593 4.768 4.768 0 016.581-.16l.57.567.56.557.564-.552.592-.58z" stroke="#008891" stroke-width="1.6"/></symbol><symbol viewBox="0 0 20 23" fill="none" id="trophie-3"><path d="M9.66 16.47l-1.541-.983-1.816.22-.96-1.558-1.73-.59-.192-1.82-1.304-1.282.62-1.722-.62-1.721 1.304-1.283.191-1.819 1.731-.59.96-1.557 1.816.219L9.66 1l1.542.984 1.815-.22.96 1.558 1.731.59.192 1.819 1.303 1.283-.62 1.721.62 1.722L15.9 11.74l-.192 1.819-1.731.59-.96 1.557-1.815-.22-1.542.985z" stroke="#008891" stroke-width="1.6" stroke-miterlimit="10"/><path d="M13.508 8.884a3.7 3.7 0 11-7.399 0 3.7 3.7 0 017.399 0zm1.077 4.821l2.307 5.348-2.419.103-1.735 1.689-2.066-4.79m-6.23-2.35l-2.307 5.348 2.419.103 1.735 1.689 2.067-4.79" stroke="#008891" stroke-width="1.6" stroke-miterlimit="10"/></symbol><symbol viewBox="0 0 21 21" fill="none" id="trophie-4"><path d="M3.2 2h13.6M4.74 4.24H1v3.081a3.361 3.361 0 003.361 3.361h1.045m2.949 6.153v-3.713m3.29 0v3.713" stroke="#008891" stroke-width="1.6" stroke-miterlimit="10"/><path d="M4.742 2v6.133c.002 2.861 2.325 5.217 5.186 5.257a5.26 5.26 0 005.335-5.26V2M4.742 20h10.52m-1.619 0v-1.894a1.12 1.12 0 00-1.12-1.12H7.48a1.12 1.12 0 00-1.12 1.12V20" stroke="#008891" stroke-width="1.6" stroke-miterlimit="10"/><path d="M15.262 4.24h3.74v3.081a3.361 3.361 0 01-3.362 3.361h-1.038" stroke="#008891" stroke-width="1.6" stroke-miterlimit="10"/></symbol><symbol viewBox="0 0 20 20" fill="none" id="trophie-5"><g mask="url(#trophie-5_mask0_840_9428)" stroke="#008891" stroke-width="1.4" stroke-miterlimit="10"><path d="M19.414 10A9.414 9.414 0 11.586 10C.586 4.8 4.8.586 10 .586c5.2 0 9.414 4.215 9.414 9.414zM5.352 7.024a1.506 1.506 0 113.012 0m6.282 0a1.506 1.506 0 10-3.013 0"/><path d="M4.52 10.704a5.48 5.48 0 0010.96 0V10H4.52v.704z"/></g></symbol><symbol viewBox="0 0 20 22" fill="none" id="trophie-6"><path d="M7.634 4.416H3.428l2.415 2.848a3.318 3.318 0 111.79-2.849z" stroke="#008891" stroke-width="1.6" stroke-miterlimit="10" stroke-linejoin="round"/><path d="M18.83 4.416l-7.7 9.08-5.285-6.232L3.43 4.416h15.4zm-7.703 14.017L7.277 21h7.7l-3.85-2.567zm.002-4.937v4.938M5.605 6.983h11.048" stroke="#008891" stroke-width="1.6" stroke-miterlimit="10" stroke-linejoin="round"/></symbol><symbol viewBox="0 0 18 18" fill="none" id="video"><rect x=".5" y=".5" width="17" height="17" rx="2.5" stroke="#878787"/><path d="M7.5 12.5v-6l4 3-4 3z" stroke="#878787"/></symbol><symbol viewBox="0 0 40 40" fill="none" id="vidget-icon-1"><path d="M26.017 15.761a3.737 3.737 0 00-5.284 0l-.732.732-.732-.732a3.737 3.737 0 10-5.285 5.285L20 27.062h.001l6.016-6.016a3.737 3.737 0 000-5.285z" stroke="#fff" stroke-width="1.6" stroke-miterlimit="10"/><path d="M33.458 28.657l-.672-.434-.211.327.127.368.756-.261zm-4.43 4.554l.298-.743-.397-.158-.352.241.451.66zM36 36l-.297.743 1.626.65-.573-1.655L36 36zm-.8-16a15.13 15.13 0 01-2.414 8.223l1.345.867A16.726 16.726 0 0036.8 20h-1.6zM20 4.8c8.395 0 15.2 6.805 15.2 15.2h1.6c0-9.278-7.522-16.8-16.8-16.8v1.6zM4.8 20c0-8.395 6.805-15.2 15.2-15.2V3.2C10.722 3.2 3.2 10.722 3.2 20h1.6zM20 35.2c-8.395 0-15.2-6.805-15.2-15.2H3.2c0 9.278 7.522 16.8 16.8 16.8v-1.6zm8.576-2.649A15.126 15.126 0 0120 35.2v1.6c3.516 0 6.782-1.08 9.48-2.929l-.904-1.32zm7.721 2.706l-6.971-2.789-.595 1.486 6.972 2.789.594-1.486zm-3.595-6.339l2.542 7.344 1.512-.524-2.542-7.343-1.512.523z" fill="#fff"/></symbol><symbol viewBox="0 0 40 40" fill="none" id="vidget-icon-2"><path d="M4 7.547V25.81l5.475-4.14a3.548 3.548 0 012.143-.728H23.66c1.573 0 2.848-1.352 2.848-3.02V4.527H6.848C5.275 4.527 4 5.879 4 7.547z" stroke="#fff" stroke-width="1.6" stroke-miterlimit="10" stroke-linecap="round" stroke-linejoin="round"/><path d="M30.49 12.716h2.66c1.573 0 2.848 1.352 2.848 3.02V34l-5.475-4.14a3.549 3.549 0 00-2.142-.728H16.338c-1.572 0-2.848-1.352-2.848-3.02v-.946m8.178-14.888H10.162m11.506 4.927H10.162" stroke="#fff" stroke-width="1.6" stroke-miterlimit="10" stroke-linecap="round" stroke-linejoin="round"/></symbol><symbol viewBox="0 0 20 20" fill="none" id="vk"><path fill-rule="evenodd" clip-rule="evenodd" d="M9.817 14.989h.958s.28-.044.439-.22c.14-.155.14-.463.14-.463s-.02-1.408.578-1.628c.579-.198 1.337 1.364 2.136 1.958.598.463 1.057.353 1.057.353l2.136-.022s1.117-.067.579-1.035c-.04-.088-.3-.726-1.577-2.024-1.337-1.364-1.158-1.144.459-3.52.978-1.43 1.377-2.31 1.257-2.706-.12-.352-.838-.264-.838-.264l-2.395.022s-.18-.022-.32.066c-.159.11-.239.308-.239.308s-.379 1.122-.878 2.068c-1.077 2.002-1.496 2.112-1.676 1.98-.4-.286-.3-1.166-.3-1.782 0-1.936.26-2.75-.518-2.948-.26-.066-.46-.11-1.118-.132-.858 0-1.577 0-1.996.22-.28.154-.479.484-.359.484.16.022.519.11.698.396.24.374.24 1.188.24 1.188s.14 2.288-.34 2.574c-.319.198-.758-.198-1.716-2.024-.479-.924-.858-1.958-.858-1.958s-.08-.198-.2-.286c-.1-.088-.299-.154-.518-.154l-2.136.022s-.339 0-.459.176c-.12.154 0 .44 0 .44s1.796 4.598 3.812 6.908c1.856 2.157 3.952 2.003 3.952 2.003z" fill="currentColor"/></symbol><symbol viewBox="0 0 20 20" fill="none" id="whatsapp"><path d="M10 3c-3.86 0-7 3.14-7 7 0 1.358.39 2.667 1.129 3.804L3.038 16.35a.466.466 0 00.613.612l2.545-1.09A6.944 6.944 0 0010 17c3.86 0 7-3.14 7-7s-3.14-7-7-7zm3.593 9.506s-.582.746-1.003.92c-1.069.443-2.578 0-4.298-1.718-1.719-1.72-2.161-3.23-1.719-4.298.175-.421.921-1.003.921-1.003a.544.544 0 01.699.043l.844.845a.468.468 0 010 .66l-.53.53s-.215.644 1.075 1.933c1.289 1.29 1.934 1.075 1.934 1.075l.53-.53a.468.468 0 01.66 0l.844.844a.544.544 0 01.043.699z" fill="currentColor"/></symbol><clipPath id="cross_clip0_840_9459"><path fill="#fff" d="M0 0h14v14H0z"/></clipPath><style>.sprite-symbol-usage{display:none}.sprite-symbol-usage:target{display:inline}</style><mask id="trophie-5_mask0_840_9428" style="mask-type:luminance" maskUnits="userSpaceOnUse" x="0" y="0" width="20" height="20"><path d="M19.3 19.3V.7H.7v18.6h18.6z" fill="#fff" stroke="#fff" stroke-width="1.4"/></mask></defs><use id="arrow-usage" xlink:href="#arrow" class="sprite-symbol-usage"/><use id="arrow-back-usage" xlink:href="#arrow-back" class="sprite-symbol-usage"/><use id="arrow-down-usage" xlink:href="#arrow-down" class="sprite-symbol-usage"/><use id="arrow-down-2-usage" xlink:href="#arrow-down-2" class="sprite-symbol-usage"/><use id="arrow-left-middle-usage" xlink:href="#arrow-left-middle" class="sprite-symbol-usage"/><use id="arrow-long-usage" xlink:href="#arrow-long" class="sprite-symbol-usage"/><use id="arrow-right-usage" xlink:href="#arrow-right" class="sprite-symbol-usage"/><use id="arrow-right-middle-usage" xlink:href="#arrow-right-middle" class="sprite-symbol-usage"/><use id="arrow-right-small-usage" xlink:href="#arrow-right-small" class="sprite-symbol-usage"/><use id="base-icon-1-usage" xlink:href="#base-icon-1" class="sprite-symbol-usage"/><use id="base-icon-2-usage" xlink:href="#base-icon-2" class="sprite-symbol-usage"/><use id="base-icon-3-usage" xlink:href="#base-icon-3" class="sprite-symbol-usage"/><use id="card-info-icon-1-usage" xlink:href="#card-info-icon-1" class="sprite-symbol-usage"/><use id="card-info-icon-2-usage" xlink:href="#card-info-icon-2" class="sprite-symbol-usage"/><use id="cross-usage" xlink:href="#cross" class="sprite-symbol-usage"/><use id="decor-1-usage" xlink:href="#decor-1" class="sprite-symbol-usage"/><use id="docs-decor-usage" xlink:href="#docs-decor" class="sprite-symbol-usage"/><use id="docs-icon-1-usage" xlink:href="#docs-icon-1" class="sprite-symbol-usage"/><use id="docs-icon-2-usage" xlink:href="#docs-icon-2" class="sprite-symbol-usage"/><use id="docs-icon-3-usage" xlink:href="#docs-icon-3" class="sprite-symbol-usage"/><use id="docs-icon-4-usage" xlink:href="#docs-icon-4" class="sprite-symbol-usage"/><use id="done-usage" xlink:href="#done" class="sprite-symbol-usage"/><use id="download-usage" xlink:href="#download" class="sprite-symbol-usage"/><use id="exp-icon-1-usage" xlink:href="#exp-icon-1" class="sprite-symbol-usage"/><use id="exp-icon-2-usage" xlink:href="#exp-icon-2" class="sprite-symbol-usage"/><use id="exp-icon-3-usage" xlink:href="#exp-icon-3" class="sprite-symbol-usage"/><use id="exp-icon-4-usage" xlink:href="#exp-icon-4" class="sprite-symbol-usage"/><use id="exp-icon-5-usage" xlink:href="#exp-icon-5" class="sprite-symbol-usage"/><use id="exp-icon-6-usage" xlink:href="#exp-icon-6" class="sprite-symbol-usage"/><use id="exp-icon-7-usage" xlink:href="#exp-icon-7" class="sprite-symbol-usage"/><use id="exp-icon-8-usage" xlink:href="#exp-icon-8" class="sprite-symbol-usage"/><use id="exp-icon-doc-usage" xlink:href="#exp-icon-doc" class="sprite-symbol-usage"/><use id="eye-usage" xlink:href="#eye" class="sprite-symbol-usage"/><use id="eye-closed-usage" xlink:href="#eye-closed" class="sprite-symbol-usage"/><use id="eye-exp-usage" xlink:href="#eye-exp" class="sprite-symbol-usage"/><use id="favorite-usage" xlink:href="#favorite" class="sprite-symbol-usage"/><use id="glass-usage" xlink:href="#glass" class="sprite-symbol-usage"/><use id="icon-doc-usage" xlink:href="#icon-doc" class="sprite-symbol-usage"/><use id="icon-nav-1-usage" xlink:href="#icon-nav-1" class="sprite-symbol-usage"/><use id="icon-nav-2-usage" xlink:href="#icon-nav-2" class="sprite-symbol-usage"/><use id="icon-nav-3-usage" xlink:href="#icon-nav-3" class="sprite-symbol-usage"/><use id="icon-nav-4-usage" xlink:href="#icon-nav-4" class="sprite-symbol-usage"/><use id="icon-nav-5-usage" xlink:href="#icon-nav-5" class="sprite-symbol-usage"/><use id="icon-nav-6-usage" xlink:href="#icon-nav-6" class="sprite-symbol-usage"/><use id="icon-nav-7-usage" xlink:href="#icon-nav-7" class="sprite-symbol-usage"/><use id="icon-pdf-usage" xlink:href="#icon-pdf" class="sprite-symbol-usage"/><use id="icon-xls-usage" xlink:href="#icon-xls" class="sprite-symbol-usage"/><use id="loading-usage" xlink:href="#loading" class="sprite-symbol-usage"/><use id="logo-usage" xlink:href="#logo" class="sprite-symbol-usage"/><use id="message-usage" xlink:href="#message" class="sprite-symbol-usage"/><use id="ok-usage" xlink:href="#ok" class="sprite-symbol-usage"/><use id="photo-usage" xlink:href="#photo" class="sprite-symbol-usage"/><use id="play-usage" xlink:href="#play" class="sprite-symbol-usage"/><use id="plus-usage" xlink:href="#plus" class="sprite-symbol-usage"/><use id="quote-usage" xlink:href="#quote" class="sprite-symbol-usage"/><use id="search-usage" xlink:href="#search" class="sprite-symbol-usage"/><use id="share-usage" xlink:href="#share" class="sprite-symbol-usage"/><use id="spinner-usage" xlink:href="#spinner" class="sprite-symbol-usage"/><use id="tg-usage" xlink:href="#tg" class="sprite-symbol-usage"/><use id="to-employee-icon-1-usage" xlink:href="#to-employee-icon-1" class="sprite-symbol-usage"/><use id="to-employee-icon-2-usage" xlink:href="#to-employee-icon-2" class="sprite-symbol-usage"/><use id="to-employee-icon-3-usage" xlink:href="#to-employee-icon-3" class="sprite-symbol-usage"/><use id="to-employee-icon-4-usage" xlink:href="#to-employee-icon-4" class="sprite-symbol-usage"/><use id="to-employee-icon-5-usage" xlink:href="#to-employee-icon-5" class="sprite-symbol-usage"/><use id="trophie-1-usage" xlink:href="#trophie-1" class="sprite-symbol-usage"/><use id="trophie-2-usage" xlink:href="#trophie-2" class="sprite-symbol-usage"/><use id="trophie-3-usage" xlink:href="#trophie-3" class="sprite-symbol-usage"/><use id="trophie-4-usage" xlink:href="#trophie-4" class="sprite-symbol-usage"/><use id="trophie-5-usage" xlink:href="#trophie-5" class="sprite-symbol-usage"/><use id="trophie-6-usage" xlink:href="#trophie-6" class="sprite-symbol-usage"/><use id="video-usage" xlink:href="#video" class="sprite-symbol-usage"/><use id="vidget-icon-1-usage" xlink:href="#vidget-icon-1" class="sprite-symbol-usage"/><use id="vidget-icon-2-usage" xlink:href="#vidget-icon-2" class="sprite-symbol-usage"/><use id="vk-usage" xlink:href="#vk" class="sprite-symbol-usage"/><use id="whatsapp-usage" xlink:href="#whatsapp" class="sprite-symbol-usage"/></svg>